<?xml version="1.0" encoding="utf-8"?>
<!-- Generator: Adobe Illustrator 13.0.0, SVG Export Plug-In . SVG Version: 6.00 Build 14948)  -->
<!DOCTYPE svg PUBLIC "-//W3C//DTD SVG 1.1//EN" "http://www.w3.org/Graphics/SVG/1.1/DTD/svg11.dtd">
<svg version="1.1"
	 id="svg2" xmlns:dc="http://purl.org/dc/elements/1.1/" xmlns:cc="http://creativecommons.org/ns#" xmlns:rdf="http://www.w3.org/1999/02/22-rdf-syntax-ns#" xmlns:inkscape="http://www.inkscape.org/namespaces/inkscape" xmlns:svg="http://www.w3.org/2000/svg"
	 xmlns="http://www.w3.org/2000/svg" xmlns:xlink="http://www.w3.org/1999/xlink" x="0px" y="0px" width="200.5px" height="37.8px"
	 viewBox="0 0 200.5 37.8" enable-background="new 0 0 200.5 37.8" xml:space="preserve">
<g id="g16">
	<path id="path22" inkscape:connector-curvature="0" fill="#ED652E" d="M194.5,26.2l-8.9,5.6c-0.7,0.5-1.3,0.1-1.3-0.8V19.8
		c0-0.9,0.6-1.3,1.3-0.9l8.9,5.6C195.3,25,195.3,25.8,194.5,26.2z M188.6,13c-6.6,0-11.9,5.6-11.9,12.4c0,6.9,5.3,12.4,11.9,12.4
		s11.9-5.6,11.9-12.4S195.2,13,188.6,13"/>
	<path id="path24" inkscape:connector-curvature="0" fill="#ED652E" d="M10.2,6.7c-2.9,0-4.8,1.6-6.1,3.5V7.1H0v24.3h4.1v-8.6
		c1.3,1.7,3.1,3.3,6.1,3.3c4.2,0,8.3-3.5,8.3-9.7v-0.1C18.5,10.2,14.4,6.7,10.2,6.7 M14.3,16.5c0,3.7-2.3,6-5.1,6
		c-2.8,0-5.2-2.4-5.2-6v-0.1c0-3.6,2.4-6,5.2-6C12,10.5,14.3,12.8,14.3,16.5L14.3,16.5z M86.5,24.3c1.3-1,2.7-1.8,4.1-2.6V0h-4.1
		V24.3z M99.3,17.5c2-0.7,4-1.4,6-1.9c-0.7-0.3-1.5-0.6-2.2-0.9c-2.1-0.7-4-1.3-4-2.7v-0.1c0-1.1,0.9-1.8,2.5-1.8
		c1.5,0,3.3,0.7,5,1.8l1.6-3c-1.9-1.3-4.3-2.1-6.6-2.1c-3.6,0-6.4,2.2-6.4,5.7v0.1C95.4,15.4,97.2,16.7,99.3,17.5 M136,9.9
		c-1.4-1.7-3.3-3.2-6.3-3.2c-3.5,0-6.9,2.3-7.8,6.4c1.5-0.1,2.9-0.1,4.4-0.1c0.8-1.6,2.5-2.6,4.5-2.6c2.1,0,3.9,1.1,4.8,2.9
		c1.5,0.1,3,0.2,4.5,0.4V7.2H136V9.9z M154.9,6.7c-2.8,0-4.4,1.5-5.6,3.3V0h-4.1v14.3c1.4,0.2,2.8,0.4,4.1,0.6
		c0.2-2.6,1.8-4.2,4-4.2c2.4,0,3.8,1.7,3.8,4.6v1.1c1.4,0.3,2.8,0.6,4.1,0.9v-3.3C161.2,9.6,158.9,6.7,154.9,6.7 M112.9,4.3h4.4V0.2
		h-4.4V4.3z M171.1,7.1V2H167v5.1h-2.3v3.7h2.3v7.8c1.4,0.4,2.8,0.8,4.1,1.1v-9h4.8V7.1H171.1z M113.1,14c1.4-0.2,2.7-0.4,4.1-0.5
		V7.1h-4.1V14z M44.1,17.7c0,2.9-1.7,4.6-4,4.6c-2.4,0-3.8-1.6-3.8-4.5V7.1h-4.1V19c0,4.3,2.3,7.2,6.3,7.2c2.8,0,4.4-1.5,5.6-3.3
		v2.9h4.1V7.1h-4.1L44.1,17.7L44.1,17.7z M22.9,25.8H27V0h-4.1V25.8z M57.4,11.4V7.1h-4.1v18.7h4.1v-7.1c0-5,2.5-7.4,6.1-7.4h0.2
		V6.8C60.6,6.7,58.5,8.6,57.4,11.4 M73.5,6.9c-2.8,0-4.8,0.6-6.7,1.5l1.1,3.4c1.6-0.7,3.1-1.2,5.1-1.2c2.9,0,4.4,1.4,4.4,4.1v0.5
		c-1.4-0.5-2.8-0.8-4.8-0.8c-4.4,0-7.4,2-7.4,6v0.1c0,3.8,3,5.8,6.3,5.8c2.7,0,4.6-1.2,5.8-2.7v2.3h4V14.7c0-2.4-0.6-4.4-1.9-5.8
		C78.2,7.6,76.2,6.9,73.5,6.9 M77.5,19.1c0,2.4-2.1,4-4.8,4c-2,0-3.5-1-3.5-2.8v-0.1c0-1.9,1.6-3.1,4.2-3.1c1.6,0,3,0.3,4.1,0.7
		L77.5,19.1"/>
	<path id="path26" inkscape:connector-curvature="0" fill="#ED652E" d="M113,26.5h4.1V16.1c-1.4,0.2-2.8,0.4-4.1,0.7V26.5z
		 M135.9,16.2L135.9,16.2c0,3.1-2.4,5.2-5.2,5.2c-2.8,0-5.1-2.1-5.1-5.1v-0.1c0-0.3,0-0.6,0.1-0.8c-1.4,0-2.8,0.1-4.2,0.3
		c0,0.2,0,0.4,0,0.6v0.1c0,5.5,3.9,8.7,8.1,8.7c2.9,0,4.8-1.4,6.3-3.4V23c0,3.8-2,5.7-5.7,5.7c-2.4,0-4.4-0.7-6.3-2l-1.5,3.2
		c2.3,1.5,5,2.2,8,2.2c3.2,0,5.7-0.8,7.3-2.5c1.5-1.6,2.3-3.9,2.3-7v-7c-1.4-0.1-2.8-0.2-4.1-0.3C135.9,15.7,135.9,15.9,135.9,16.2
		 M103.1,19.5c1,0.4,1.8,1,1.8,1.9v0.1c0,1.2-1,2-2.8,2c-1.4,0-3-0.5-4.5-1.4c-1.1,0.6-2.1,1.2-3,1.8l-0.1,0.2
		c2.2,1.8,5,2.8,7.6,2.8c3.7,0,6.6-2,6.6-5.9v-0.1c0-1.2-0.4-2.1-1-2.9C106,18.5,104.5,19,103.1,19.5 M174.8,22.7
		c-0.5,0.2-1.1,0.3-1.6,0.3c-1.2,0-1.9-0.5-2.1-1.6c-1.4-0.4-2.8-0.7-4.2-1v1c0,4.1,2.1,5.5,5.1,5.5c1,0,1.8-0.1,2.5-0.4
		c0-0.2,0-0.3,0-0.5C174.5,24.8,174.6,23.7,174.8,22.7 M145.1,26.5h4.1v-9.7c-1.4-0.2-2.8-0.4-4.1-0.6V26.5z M157,26.5h4.1V19
		c-1.4-0.3-2.8-0.6-4.1-0.8V26.5"/>
</g>
</svg>
